<svg width="20" height="20" viewBox="0 0 20 20" fill="none" xmlns="http://www.w3.org/2000/svg">
<rect width="20" height="20" rx="4" fill="white"/>
<path d="M15.9521 10.1426C15.9521 9.74065 15.9124 9.32568 15.8462 8.93665H10.1172V11.2319H13.3985C13.2662 11.9711 12.8296 12.6195 12.1812 13.0345L14.1394 14.5257C15.2905 13.4754 15.9521 11.9452 15.9521 10.1426Z" fill="#4280EF"/>
<path d="M10.1171 15.9524C11.7578 15.9524 13.1338 15.4207 14.1393 14.513L12.1811 13.0347C11.6387 13.3978 10.9374 13.6052 10.1171 13.6052C8.52939 13.6052 7.19305 12.5548 6.7035 11.1543L4.69238 12.6716C5.7244 14.6816 7.81491 15.9524 10.1171 15.9524Z" fill="#34A353"/>
<path d="M6.70349 11.1413C6.45211 10.4021 6.45211 9.59809 6.70349 8.85893L4.69238 7.32874C3.83236 9.01455 3.83236 10.9986 4.69238 12.6715L6.70349 11.1413Z" fill="#F6B704"/>
<path d="M10.1171 6.40797C10.9772 6.395 11.824 6.7192 12.4458 7.30275L14.1791 5.591C13.0809 4.57951 11.6254 4.03487 10.1171 4.04783C7.81491 4.04783 5.7244 5.31868 4.69238 7.32868L6.7035 8.85888C7.19305 7.44539 8.52939 6.40797 10.1171 6.40797Z" fill="#E54335"/>
</svg>
