<svg width="14" height="14" viewBox="0 0 14 14" fill="none" xmlns="http://www.w3.org/2000/svg">
<g clip-path="url(#clip0_325_1136)">
<path d="M9.94043 0.700195C11.1161 0.700195 11.7042 0.699913 12.1533 0.928711C12.5485 1.13005 12.87 1.45154 13.0713 1.84668C13.3001 2.29582 13.2998 2.88385 13.2998 4.05957V9.94043C13.2998 11.1162 13.3001 11.7042 13.0713 12.1533C12.87 12.5485 12.5485 12.87 12.1533 13.0713C11.7042 13.3001 11.1162 13.2998 9.94043 13.2998H4.05957C2.88385 13.2998 2.29582 13.3001 1.84668 13.0713C1.45154 12.87 1.13005 12.5485 0.928711 12.1533C0.699913 11.7042 0.700195 11.1162 0.700195 9.94043V4.05957C0.700195 2.88385 0.699913 2.29582 0.928711 1.84668C1.13005 1.45154 1.45154 1.13005 1.84668 0.928711C2.29582 0.699913 2.88385 0.700195 4.05957 0.700195H9.94043ZM7.72852 4.2002C7.52242 4.19196 7.3246 4.27552 7.18652 4.4248L7.13086 4.49316L6.37988 5.54297L6.01953 5.27344C5.85718 5.15184 5.65039 5.1065 5.45215 5.14941C5.27842 5.18717 5.12583 5.28915 5.02539 5.43359L4.98535 5.49805L3.58594 8.06445C3.46786 8.28109 3.47195 8.54457 3.59766 8.75684C3.72376 8.96925 3.95317 9.09958 4.2002 9.09961H9.7998C10.0518 9.09958 10.2849 8.96428 10.4092 8.74512C10.5333 8.5257 10.5301 8.25524 10.4004 8.03906L8.30078 4.53906C8.1794 4.3371 7.96396 4.20972 7.72852 4.2002Z" fill="#27DD8B"/>
</g>
<defs>
<clipPath id="clip0_325_1136">
<rect width="14" height="14" fill="white"/>
</clipPath>
</defs>
</svg>
