<svg width="14" height="14" viewBox="0 0 14 14" fill="none" xmlns="http://www.w3.org/2000/svg">
<path d="M3.37463 6.23097C3.60243 6.00317 3.97169 6.00317 4.1995 6.23097C4.42694 6.45881 4.42718 6.82816 4.1995 7.05584L3.48514 7.76906C2.72706 8.52714 2.72706 9.75674 3.48514 10.5148C4.24323 11.2729 5.47283 11.2729 6.23091 10.5148L6.94413 9.80047C7.17181 9.57278 7.54116 9.57303 7.769 9.80047C7.9968 10.0283 7.9968 10.3975 7.769 10.6253L7.05578 11.3397C5.84208 12.5534 3.87397 12.5534 2.66027 11.3397C1.44658 10.126 1.44658 8.15788 2.66027 6.94419L3.37463 6.23097ZM8.35461 4.82049C8.58241 4.59268 8.95167 4.59268 9.17948 4.82049C9.40728 5.0483 9.40728 5.41756 9.17948 5.64536L5.6453 9.17954C5.41749 9.40734 5.04823 9.40734 4.82043 9.17954C4.59262 8.95173 4.59262 8.58247 4.82043 8.35467L8.35461 4.82049ZM6.94413 2.66033C8.15782 1.44664 10.1259 1.44664 11.3396 2.66033C12.5533 3.87403 12.5533 5.84214 11.3396 7.05584L10.6253 7.76906C10.3975 7.99686 10.0282 7.99686 9.80041 7.76906C9.57297 7.54122 9.57272 7.17187 9.80041 6.94419L10.5148 6.23097C11.2728 5.47289 11.2728 4.24329 10.5148 3.4852C9.75668 2.72712 8.52708 2.72712 7.769 3.4852L7.05578 4.19956C6.8281 4.42724 6.45875 4.427 6.23091 4.19956C6.0031 3.97175 6.0031 3.60249 6.23091 3.37469L6.94413 2.66033Z" fill="#F59E0B"/>
</svg>
