<svg width="20" height="20" viewBox="0 0 20 20" fill="none" xmlns="http://www.w3.org/2000/svg">
<path d="M3.6835 6.88624C3.55229 6.88295 3.45701 6.87557 3.37135 6.859C2.73665 6.73626 2.24049 6.25388 2.11424 5.63681C2.0835 5.48654 2.0835 5.30584 2.0835 4.94444C2.0835 4.58305 2.0835 4.40235 2.11424 4.25208C2.24049 3.63501 2.73665 3.15263 3.37135 3.02989C3.52591 3 3.71177 3 4.0835 3H16.0835C16.4552 3 16.6411 3 16.7956 3.02989C17.4303 3.15263 17.9265 3.63501 18.0528 4.25208C18.0835 4.40235 18.0835 4.58305 18.0835 4.94444C18.0835 5.30584 18.0835 5.48654 18.0528 5.63681C17.9265 6.25388 17.4303 6.73626 16.7956 6.859C16.71 6.87557 16.6147 6.88295 16.4835 6.88624M8.4835 10.7778H11.6835M3.6835 6.88889H16.4835V13.2667C16.4835 14.5735 16.4835 15.2269 16.2219 15.726C15.9918 16.165 15.6247 16.522 15.1731 16.7457C14.6597 17 13.9876 17 12.6435 17H7.5235C6.17937 17 5.50731 17 4.99392 16.7457C4.54233 16.522 4.17518 16.165 3.94508 15.726C3.6835 15.2269 3.6835 14.5735 3.6835 13.2667V6.88889Z" stroke="#898989" stroke-width="1.5" stroke-linecap="round" stroke-linejoin="round"/>
</svg>
