<svg width="16" height="16" viewBox="0 0 16 16" fill="none" xmlns="http://www.w3.org/2000/svg">
<path d="M13 6.8V2.96C13 2.62397 13 2.45595 12.9319 2.32761C12.872 2.21471 12.7763 2.12292 12.6587 2.0654C12.525 2 12.35 2 12 2H4C3.64997 2 3.47495 2 3.34126 2.0654C3.22365 2.12292 3.12804 2.21471 3.06812 2.32761C3 2.45595 3 2.62397 3 2.96V6.8M13 6.8H3M13 6.8V6.92C13 7.92809 13 8.43214 12.7956 8.81718C12.6159 9.15588 12.329 9.43124 11.9762 9.60381C11.5751 9.8 11.0501 9.8 10 9.8H6C4.9499 9.8 4.42485 9.8 4.02377 9.60381C3.67096 9.43124 3.38413 9.15588 3.20436 8.81718C3 8.43214 3 7.92809 3 6.92V6.8M9.5625 9.8V12.5C9.5625 13.3284 8.86294 14 8 14C7.13706 14 6.4375 13.3284 6.4375 12.5V9.8" stroke="#898989" stroke-width="1.3" stroke-linecap="round" stroke-linejoin="round"/>
</svg>
