<svg width="16" height="16" viewBox="0 0 16 16" fill="none" xmlns="http://www.w3.org/2000/svg">
<path d="M14.6668 6.66658H1.3335M7.3335 9.33325H4.00016M1.3335 5.46659L1.3335 10.5333C1.3335 11.28 1.3335 11.6534 1.47882 11.9386C1.60665 12.1895 1.81063 12.3934 2.06151 12.5213C2.34672 12.6666 2.72009 12.6666 3.46683 12.6666L12.5335 12.6666C13.2802 12.6666 13.6536 12.6666 13.9388 12.5213C14.1897 12.3934 14.3937 12.1895 14.5215 11.9386C14.6668 11.6534 14.6668 11.28 14.6668 10.5333V5.46659C14.6668 4.71985 14.6668 4.34648 14.5215 4.06127C14.3937 3.81038 14.1897 3.60641 13.9388 3.47858C13.6536 3.33325 13.2802 3.33325 12.5335 3.33325L3.46683 3.33325C2.72009 3.33325 2.34672 3.33325 2.06151 3.47858C1.81063 3.60641 1.60665 3.81038 1.47882 4.06126C1.3335 4.34648 1.3335 4.71985 1.3335 5.46659Z" stroke="#898989" stroke-width="1.3" stroke-linecap="round" stroke-linejoin="round"/>
</svg>
