<svg width="16" height="16" viewBox="0 0 16 16" fill="none" xmlns="http://www.w3.org/2000/svg">
<path d="M8 1C11.8658 1.00001 15 4.1342 15 8C15 11.8658 11.8658 15 8 15C4.1342 15 1.00001 11.8658 1 8C1 4.1342 4.1342 1 8 1ZM11.9941 5.40527C11.7208 5.132 11.2782 5.13195 11.0049 5.40527L7.2998 9.11035L5.69434 7.50488C5.42098 7.23183 4.97834 7.23169 4.70508 7.50488C4.43172 7.77824 4.43172 8.22176 4.70508 8.49512L6.80469 10.5947C7.07804 10.8681 7.52157 10.8681 7.79492 10.5947L11.9941 6.39453C12.2675 6.12118 12.2675 5.67863 11.9941 5.40527Z" fill="#898989"/>
</svg>
