<svg width="16" height="16" viewBox="0 0 16 16" fill="none" xmlns="http://www.w3.org/2000/svg">
<g clip-path="url(#clip0_420_961)">
<path d="M7.68311 1.06177C7.8847 0.978731 8.1153 0.978749 8.31689 1.06177C8.54803 1.15697 8.72527 1.44113 9.07959 2.00806L15.4907 12.2659C15.8462 12.8347 16.0238 13.1193 15.9976 13.3528C15.9746 13.5564 15.859 13.7412 15.6802 13.8616C15.4752 13.9995 15.1202 14.0002 14.4106 14.0002H1.58936C0.879708 14.0002 0.524801 13.9996 0.319824 13.8616C0.141048 13.7412 0.0253619 13.5564 0.00244141 13.3528C-0.0238256 13.1193 0.153787 12.8347 0.509277 12.2659L6.92041 2.00806C7.27469 1.44118 7.45201 1.157 7.68311 1.06177ZM7.99951 10.5999C7.61307 10.6 7.30029 10.9136 7.30029 11.3C7.30046 11.6864 7.61317 11.9991 7.99951 11.9993H8.00635C8.39283 11.9993 8.70638 11.6865 8.70654 11.3C8.70654 10.9135 8.39293 10.5999 8.00635 10.5999H7.99951ZM8.00635 5.00024C7.61991 5.00041 7.30713 5.31396 7.30713 5.70044V8.50024C7.30732 8.88656 7.62003 9.1993 8.00635 9.19946C8.39281 9.19946 8.70635 8.88666 8.70654 8.50024V5.70044C8.70654 5.31386 8.39293 5.00024 8.00635 5.00024Z" fill="#898989"/>
</g>
<defs>
<clipPath id="clip0_420_961">
<rect width="16" height="16" fill="white"/>
</clipPath>
</defs>
</svg>
