<svg width="16" height="16" viewBox="0 0 16 16" fill="none" xmlns="http://www.w3.org/2000/svg">
<path d="M8.6401 4.88879L7.92615 3.50056C7.72068 3.10102 7.61793 2.90125 7.46466 2.75529C7.32911 2.62622 7.16574 2.52806 6.98639 2.46792C6.78356 2.3999 6.55383 2.3999 6.09436 2.3999H3.6481C2.93123 2.3999 2.5728 2.3999 2.29899 2.53554C2.05814 2.65485 1.86233 2.84522 1.73961 3.07938C1.6001 3.34558 1.6001 3.69406 1.6001 4.39101V4.88879M1.6001 4.88879H11.3281C12.4034 4.88879 12.941 4.88879 13.3518 5.09225C13.713 5.27121 14.0068 5.55677 14.1908 5.90801C14.4001 6.30731 14.4001 6.83003 14.4001 7.87546V10.6132C14.4001 11.6587 14.4001 12.1814 14.1908 12.5807C14.0068 12.9319 13.713 13.2175 13.3518 13.3964C12.941 13.5999 12.4034 13.5999 11.3281 13.5999H4.6721C3.5968 13.5999 3.05915 13.5999 2.64844 13.3964C2.28716 13.2175 1.99344 12.9319 1.80937 12.5807C1.6001 12.1814 1.6001 11.6587 1.6001 10.6132V4.88879Z" stroke="#898989" stroke-width="1.3" stroke-linecap="round" stroke-linejoin="round"/>
</svg>
