<svg width="20" height="20" viewBox="0 0 20 20" fill="none" xmlns="http://www.w3.org/2000/svg">
<path d="M10.8 6.11111L9.90757 4.37582C9.65072 3.8764 9.52229 3.62668 9.3307 3.44424C9.16126 3.2829 8.95706 3.1602 8.73286 3.08502C8.47933 3 8.19217 3 7.61783 3H4.56C3.66392 3 3.21587 3 2.87362 3.16955C2.57256 3.31868 2.32779 3.55665 2.17439 3.84935C2 4.1821 2 4.6177 2 5.48889V6.11111M2 6.11111H14.16C15.5041 6.11111 16.1762 6.11111 16.6896 6.36543C17.1412 6.58913 17.5083 6.94609 17.7384 7.38513C18 7.88426 18 8.53766 18 9.84444V13.2667C18 14.5735 18 15.2268 17.7384 15.726C17.5083 16.165 17.1412 16.522 16.6896 16.7457C16.1762 17 15.5041 17 14.16 17H5.84C4.49587 17 3.82381 17 3.31042 16.7457C2.85883 16.522 2.49168 16.165 2.26158 15.726C2 15.2268 2 14.5735 2 13.2667V6.11111Z" stroke="#898989" stroke-width="1.5" stroke-linecap="round" stroke-linejoin="round"/>
</svg>
