<svg width="16" height="16" viewBox="0 0 16 16" fill="none" xmlns="http://www.w3.org/2000/svg">
<path d="M2.9465 5.5089C2.84154 5.50626 2.76532 5.50035 2.69679 5.4871C2.18902 5.38891 1.7921 5.00301 1.6911 4.50935C1.6665 4.38914 1.6665 4.24458 1.6665 3.95546C1.6665 3.66634 1.6665 3.52178 1.6911 3.40157C1.7921 2.90791 2.18902 2.52201 2.69679 2.42381C2.82043 2.3999 2.96912 2.3999 3.2665 2.3999H12.8665C13.1639 2.3999 13.3126 2.3999 13.4362 2.42381C13.944 2.52201 14.3409 2.90791 14.4419 3.40157C14.4665 3.52178 14.4665 3.66634 14.4665 3.95546C14.4665 4.24458 14.4665 4.38914 14.4419 4.50935C14.3409 5.00301 13.944 5.38891 13.4362 5.4871C13.3677 5.50035 13.2915 5.50626 13.1865 5.5089M6.7865 8.62212H9.3465M2.9465 5.51101H13.1865V10.6132C13.1865 11.6587 13.1865 12.1814 12.9772 12.5807C12.7932 12.9319 12.4994 13.2175 12.1382 13.3964C11.7275 13.5999 11.1898 13.5999 10.1145 13.5999H6.0185C4.9432 13.5999 4.40555 13.5999 3.99484 13.3964C3.63357 13.2175 3.33985 12.9319 3.15577 12.5807C2.9465 12.1814 2.9465 11.6587 2.9465 10.6132V5.51101Z" stroke="#898989" stroke-width="1.3" stroke-linecap="round" stroke-linejoin="round"/>
</svg>
