<svg width="16" height="16" viewBox="0 0 16 16" fill="none" xmlns="http://www.w3.org/2000/svg">
<path d="M7.99951 1C11.8653 1 14.9995 4.1342 14.9995 8C14.9995 11.8658 11.8653 15 7.99951 15C4.13381 14.9999 1.00053 11.8657 1.00049 8C1.00049 4.13425 4.13379 1.00009 7.99951 1ZM7.99951 7.2998C7.61304 7.29993 7.29932 7.6135 7.29932 8V10.7998C7.29932 11.1863 7.61304 11.4999 7.99951 11.5C8.38609 11.5 8.6997 11.1864 8.69971 10.7998V8C8.69971 7.61342 8.38609 7.2998 7.99951 7.2998ZM7.99951 4.5C7.61304 4.50012 7.29932 4.81369 7.29932 5.2002C7.29939 5.58664 7.61308 5.90027 7.99951 5.90039H8.00635C8.39288 5.90039 8.70647 5.58672 8.70654 5.2002C8.70654 4.81361 8.39293 4.5 8.00635 4.5H7.99951Z" fill="#898989"/>
</svg>
