<svg width="16" height="16" viewBox="0 0 16 16" fill="none" xmlns="http://www.w3.org/2000/svg">
<path d="M6 2H2.66667C2.29848 2 2 2.29848 2 2.66667V6C2 6.36819 2.29848 6.66667 2.66667 6.66667H6C6.36819 6.66667 6.66667 6.36819 6.66667 6V2.66667C6.66667 2.29848 6.36819 2 6 2Z" stroke="#898989" stroke-width="1.5" stroke-linecap="round" stroke-linejoin="round"/>
<path d="M13.3333 2H9.99992C9.63173 2 9.33325 2.29848 9.33325 2.66667V6C9.33325 6.36819 9.63173 6.66667 9.99992 6.66667H13.3333C13.7014 6.66667 13.9999 6.36819 13.9999 6V2.66667C13.9999 2.29848 13.7014 2 13.3333 2Z" stroke="#898989" stroke-width="1.5" stroke-linecap="round" stroke-linejoin="round"/>
<path d="M13.3333 9.33337H9.99992C9.63173 9.33337 9.33325 9.63185 9.33325 10V13.3334C9.33325 13.7016 9.63173 14 9.99992 14H13.3333C13.7014 14 13.9999 13.7016 13.9999 13.3334V10C13.9999 9.63185 13.7014 9.33337 13.3333 9.33337Z" stroke="#898989" stroke-width="1.5" stroke-linecap="round" stroke-linejoin="round"/>
<path d="M6 9.33337H2.66667C2.29848 9.33337 2 9.63185 2 10V13.3334C2 13.7016 2.29848 14 2.66667 14H6C6.36819 14 6.66667 13.7016 6.66667 13.3334V10C6.66667 9.63185 6.36819 9.33337 6 9.33337Z" stroke="#898989" stroke-width="1.5" stroke-linecap="round" stroke-linejoin="round"/>
</svg>
