<svg width="20" height="20" viewBox="0 0 20 20" fill="none" xmlns="http://www.w3.org/2000/svg">
<path d="M6.5 10.5H10.5M6.5 13.5H12.5" stroke="#898989" stroke-width="1.5" stroke-linecap="round"/>
<path d="M4.625 18C4.19402 18 3.7807 17.8314 3.47595 17.5314C3.1712 17.2313 3 16.8243 3 16.4V3.6C3 3.17566 3.1712 2.76869 3.47595 2.46863C3.7807 2.16857 4.19402 2 4.625 2H11.125C11.3822 1.99959 11.6369 2.04928 11.8746 2.14622C12.1122 2.24315 12.328 2.38541 12.5095 2.5648L15.4247 5.4352C15.6074 5.61401 15.7523 5.82668 15.8511 6.06093C15.9498 6.29518 16.0004 6.54638 16 6.8V16.4C16 16.8243 15.8288 17.2313 15.524 17.5314C15.2193 17.8314 14.806 18 14.375 18H4.625Z" stroke="#898989" stroke-width="1.5" stroke-linecap="round" stroke-linejoin="round"/>
<path d="M11 2V6.16667C11 6.38768 11.0878 6.59964 11.2441 6.75592C11.4004 6.9122 11.6123 7 11.8333 7H16" stroke="#898989" stroke-width="1.5" stroke-linecap="round" stroke-linejoin="round"/>
</svg>
