<svg width="16" height="16" viewBox="0 0 16 16" fill="none" xmlns="http://www.w3.org/2000/svg">
<path d="M7.99951 1C11.8653 1 14.9995 4.1342 14.9995 8C14.9995 11.8658 11.8653 15 7.99951 15C4.13381 14.9999 1.00053 11.8657 1.00049 8C1.00049 4.13425 4.13379 1.00009 7.99951 1ZM7.99951 10.0996C7.61305 10.0997 7.29932 10.4133 7.29932 10.7998C7.29938 11.1862 7.61309 11.4999 7.99951 11.5H8.00635C8.39289 11.5 8.70648 11.1863 8.70654 10.7998C8.70654 10.4132 8.39293 10.0996 8.00635 10.0996H7.99951ZM8.00635 4.5C7.61989 4.50014 7.30615 4.8137 7.30615 5.2002V8C7.30624 8.38642 7.61994 8.70006 8.00635 8.7002C8.39287 8.7002 8.70645 8.3865 8.70654 8V5.2002C8.70654 4.81361 8.39293 4.5 8.00635 4.5Z" fill="#898989"/>
</svg>
