<svg width="20" height="20" viewBox="0 0 20 20" fill="none" xmlns="http://www.w3.org/2000/svg">
<g clip-path="url(#clip0_262_212)">
<path d="M10.0001 12.5C11.3808 12.5 12.5001 11.3807 12.5001 9.99996C12.5001 8.61925 11.3808 7.49996 10.0001 7.49996C8.61937 7.49996 7.50008 8.61925 7.50008 9.99996C7.50008 11.3807 8.61937 12.5 10.0001 12.5Z" stroke="#898989" stroke-width="1.5" stroke-linecap="round" stroke-linejoin="round"/>
<path d="M15.6061 12.2727C15.5053 12.5012 15.4752 12.7547 15.5198 13.0004C15.5643 13.2462 15.6815 13.4729 15.8561 13.6515L15.9016 13.6969C16.0425 13.8376 16.1542 14.0048 16.2305 14.1887C16.3067 14.3726 16.346 14.5698 16.346 14.7689C16.346 14.968 16.3067 15.1652 16.2305 15.3491C16.1542 15.533 16.0425 15.7002 15.9016 15.8409C15.7609 15.9817 15.5938 16.0935 15.4098 16.1697C15.2259 16.246 15.0287 16.2852 14.8296 16.2852C14.6305 16.2852 14.4334 16.246 14.2494 16.1697C14.0655 16.0935 13.8984 15.9817 13.7577 15.8409L13.7122 15.7954C13.5337 15.6208 13.3069 15.5036 13.0611 15.459C12.8154 15.4145 12.5619 15.4446 12.3334 15.5454C12.1093 15.6414 11.9183 15.8009 11.7836 16.0042C11.649 16.2074 11.5768 16.4456 11.5758 16.6894V16.8181C11.5758 17.22 11.4162 17.6054 11.1321 17.8895C10.8479 18.1737 10.4625 18.3333 10.0607 18.3333C9.65884 18.3333 9.27346 18.1737 8.98931 17.8895C8.70517 17.6054 8.54554 17.22 8.54554 16.8181V16.75C8.53967 16.4992 8.4585 16.256 8.31259 16.052C8.16667 15.848 7.96276 15.6926 7.72735 15.606C7.49886 15.5052 7.24539 15.4751 6.99964 15.5197C6.75388 15.5642 6.52711 15.6814 6.34857 15.856L6.30311 15.9015C6.16239 16.0423 5.99529 16.1541 5.81135 16.2304C5.62742 16.3066 5.43026 16.3458 5.23114 16.3458C5.03203 16.3458 4.83487 16.3066 4.65093 16.2304C4.46699 16.1541 4.29989 16.0423 4.15917 15.9015C4.0183 15.7608 3.90654 15.5937 3.83029 15.4097C3.75404 15.2258 3.7148 15.0286 3.7148 14.8295C3.7148 14.6304 3.75404 14.4332 3.83029 14.2493C3.90654 14.0654 4.0183 13.8983 4.15917 13.7575L4.20463 13.7121C4.37928 13.5335 4.49643 13.3068 4.54099 13.061C4.58555 12.8153 4.55547 12.5618 4.45463 12.3333C4.35859 12.1092 4.19914 11.9181 3.99589 11.7835C3.79264 11.6489 3.55447 11.5767 3.31069 11.5757H3.1819C2.78006 11.5757 2.39467 11.4161 2.11053 11.1319C1.82638 10.8478 1.66675 10.4624 1.66675 10.0606C1.66675 9.65872 1.82638 9.27334 2.11053 8.98919C2.39467 8.70505 2.78006 8.54541 3.1819 8.54541H3.25008C3.50083 8.53955 3.74402 8.45838 3.94804 8.31247C4.15205 8.16655 4.30744 7.96264 4.39402 7.72723C4.49487 7.49874 4.52495 7.24527 4.48039 6.99951C4.43583 6.75376 4.31867 6.52699 4.14402 6.34844L4.09857 6.30299C3.95769 6.16227 3.84594 5.99517 3.76969 5.81123C3.69344 5.6273 3.65419 5.43013 3.65419 5.23102C3.65419 5.03191 3.69344 4.83474 3.76969 4.65081C3.84594 4.46687 3.95769 4.29977 4.09857 4.15905C4.23928 4.01818 4.40639 3.90642 4.59032 3.83017C4.77426 3.75392 4.97142 3.71468 5.17054 3.71468C5.36965 3.71468 5.56681 3.75392 5.75075 3.83017C5.93469 3.90642 6.10179 4.01818 6.24251 4.15905L6.28796 4.2045C6.4665 4.37915 6.69328 4.49631 6.93903 4.54087C7.18478 4.58543 7.43825 4.55535 7.66675 4.4545H7.72735C7.95142 4.35847 8.14252 4.19902 8.27712 3.99577C8.41172 3.79252 8.48396 3.55434 8.48493 3.31057V3.18178C8.48493 2.77993 8.64456 2.39455 8.92871 2.1104C9.21285 1.82626 9.59824 1.66663 10.0001 1.66663C10.4019 1.66663 10.7873 1.82626 11.0715 2.1104C11.3556 2.39455 11.5152 2.77993 11.5152 3.18178V3.24996C11.5162 3.49374 11.5884 3.73191 11.723 3.93516C11.8576 4.13841 12.0487 4.29787 12.2728 4.3939C12.5013 4.49474 12.7548 4.52483 13.0005 4.48027C13.2463 4.43571 13.4731 4.31855 13.6516 4.1439L13.6971 4.09844C13.8378 3.95757 14.0049 3.84581 14.1888 3.76957C14.3727 3.69332 14.5699 3.65407 14.769 3.65407C14.9681 3.65407 15.1653 3.69332 15.3492 3.76957C15.5332 3.84581 15.7003 3.95757 15.841 4.09844C15.9819 4.23916 16.0936 4.40626 16.1699 4.5902C16.2461 4.77414 16.2854 4.9713 16.2854 5.17041C16.2854 5.36953 16.2461 5.56669 16.1699 5.75063C16.0936 5.93456 15.9819 6.10167 15.841 6.24238L15.7955 6.28784C15.6209 6.46638 15.5037 6.69315 15.4592 6.93891C15.4146 7.18466 15.4447 7.43813 15.5455 7.66663V7.72723C15.6416 7.9513 15.801 8.1424 16.0043 8.277C16.2075 8.4116 16.4457 8.48384 16.6895 8.48481H16.8183C17.2201 8.48481 17.6055 8.64444 17.8896 8.92859C18.1738 9.21273 18.3334 9.59812 18.3334 9.99996C18.3334 10.4018 18.1738 10.7872 17.8896 11.0713C17.6055 11.3555 17.2201 11.5151 16.8183 11.5151H16.7501C16.5063 11.5161 16.2681 11.5883 16.0649 11.7229C15.8616 11.8575 15.7022 12.0486 15.6061 12.2727Z" stroke="#898989" stroke-width="1.5" stroke-linecap="round" stroke-linejoin="round"/>
</g>
<defs>
<clipPath id="clip0_262_212">
<rect width="20" height="20" fill="white"/>
</clipPath>
</defs>
</svg>
