<svg width="99" height="28" viewBox="0 0 99 28" fill="none" xmlns="http://www.w3.org/2000/svg">
<path d="M21.4873 4C22.1377 4 22.665 4.52732 22.665 5.17773C22.665 5.82812 22.1377 6.35547 21.4873 6.35547H21.1924V6.97461C21.1924 8.03618 21.5854 8.55175 22.2139 9.26855C23.1932 9.89663 23.8428 10.9943 23.8428 12.2441V22.2539C23.8428 23.8799 22.5245 25.1982 20.8984 25.1982H7.94434L7.79297 25.1943C7.74905 25.1921 7.7055 25.1877 7.66211 25.1836C7.65724 25.1831 7.65233 25.1831 7.64746 25.1826C7.58215 25.1761 7.51808 25.1641 7.4541 25.1533C7.42515 25.1485 7.39585 25.1463 7.36719 25.1406C7.3063 25.1285 7.24697 25.1115 7.1875 25.0957C7.15299 25.0865 7.11799 25.0797 7.08398 25.0693C7.03962 25.0558 6.99657 25.039 6.95312 25.0234C6.90692 25.0069 6.86054 24.9914 6.81543 24.9727C6.77025 24.9539 6.72663 24.9321 6.68262 24.9111C6.64269 24.8921 6.60239 24.8742 6.56348 24.8535C6.51971 24.8302 6.47796 24.8037 6.43555 24.7783C6.39803 24.7559 6.35965 24.735 6.32324 24.7109C6.28527 24.6858 6.2496 24.6576 6.21289 24.6309C6.17243 24.6013 6.13163 24.5725 6.09277 24.541C6.05866 24.5134 6.02599 24.4842 5.99316 24.4551C5.95883 24.4246 5.92448 24.3943 5.8916 24.3623C5.85661 24.3282 5.82331 24.2926 5.79004 24.2568C5.75988 24.2244 5.72986 24.192 5.70117 24.1582C5.66877 24.1201 5.63788 24.0808 5.60742 24.041C5.58153 24.0072 5.55569 23.9734 5.53125 23.9385C5.50455 23.9003 5.47999 23.8608 5.45508 23.8213C5.42928 23.7804 5.40369 23.7395 5.37988 23.6973C5.35743 23.6575 5.33606 23.6171 5.31543 23.5762C5.29454 23.5347 5.27482 23.4927 5.25586 23.4502C5.23818 23.4105 5.22103 23.3706 5.20508 23.3301C5.18447 23.2777 5.1651 23.2247 5.14746 23.1709C5.13603 23.136 5.12538 23.1009 5.11523 23.0654C5.10019 23.0129 5.08637 22.9599 5.07422 22.9062C5.06458 22.8636 5.0566 22.8206 5.04883 22.7773C5.03857 22.7202 5.03035 22.6627 5.02344 22.6045C5.00977 22.4894 5 22.3726 5 22.2539V12.2441C5 10.9954 5.64805 9.89787 6.62598 9.26953C7.25534 8.5518 7.64936 8.03708 7.64941 6.97461V6.35547H7.35547C6.70508 6.35547 6.17777 5.82812 6.17773 5.17773C6.17773 4.52732 6.70506 4 7.35547 4H21.4873ZM17.0713 16.8076V19.6045H14.2744V21.3711H18.8379V16.8076H17.0713ZM10.1523 12.6855V17.249H11.9189V14.4521H14.7158V12.6855H10.1523ZM9.71094 6.72363C9.71093 7.70996 9.63708 8.32972 9.40137 8.71094H19.4404C19.2048 8.32971 19.1319 7.70976 19.1318 6.72363V6.35547H9.71094V6.72363Z" fill="#34D399"/>
<path d="M89.7105 16.2882C89.7938 17.5379 90.8213 18.3988 92.5292 18.3988C94.126 18.3988 95.3202 17.8295 95.8478 17.3018L97.4863 19.9123C96.7781 20.6621 95.3896 21.4397 92.2515 21.4397C88.4608 21.4397 85.7393 19.2597 85.7393 15.2746C85.7393 11.956 88.0026 9.37329 91.9183 9.37329C95.6395 9.37329 98 11.4283 98 15.3995C98 15.5523 97.9862 16.1632 97.9584 16.2882H89.7105ZM94.0288 14.0943C93.9872 13.1918 93.3762 12.192 91.9877 12.192C90.5853 12.192 89.8632 13.1085 89.8077 14.0943H94.0288Z" fill="#E2E8F0"/>
<path d="M83.9054 21.1063H79.7397V2H83.9054V21.1063Z" fill="#E2E8F0"/>
<path d="M73.6219 9.70638H78.3429L72.9415 15.1495L78.8845 21.1063H74.0662L69.6368 16.5102V21.1063H65.4712V2H69.6368V13.6915L73.6219 9.70638Z" fill="#E2E8F0"/>
<path d="M60.4789 18.1766C61.548 18.1766 62.2562 17.6767 62.4922 17.4546L64.4084 20.2872C63.9641 20.6482 62.5061 21.4397 60.4372 21.4397C56.5215 21.4397 53.8833 19.0792 53.8833 15.3995C53.8833 11.706 56.5215 9.37329 60.4372 9.37329C62.4645 9.37329 63.9641 10.1648 64.4084 10.5535L62.4645 13.3862C62.2701 13.2057 61.5897 12.6364 60.4789 12.6364C59.0903 12.6364 57.8545 13.7888 57.8545 15.3995C57.8545 17.0102 59.0903 18.1766 60.4789 18.1766Z" fill="#E2E8F0"/>
<path d="M49.6279 7.31817C48.3365 7.31817 47.2812 6.24899 47.2812 4.95765C47.2812 3.6802 48.3365 2.58325 49.6279 2.58325C50.9192 2.58325 52.0162 3.65243 52.0162 4.95765C52.0162 6.24899 50.947 7.31817 49.6279 7.31817ZM47.5034 21.1063V9.70645H51.6551V21.1063H47.5034Z" fill="#E2E8F0"/>
<path d="M36.0222 26.8827H31.9121V9.70654H36.0638V11.3867C36.4387 10.6091 37.98 9.37329 40.1739 9.37329C43.4786 9.37329 45.492 12.0671 45.492 15.4134C45.492 18.7598 43.312 21.4397 40.0073 21.4397C37.5912 21.4397 36.2582 19.8429 36.0222 19.2458V26.8827ZM41.4236 15.4134C41.4236 13.8166 40.2433 12.6364 38.7715 12.6364C37.2302 12.6364 36.0638 13.8444 36.0638 15.4134C36.0638 16.9964 37.2302 18.1766 38.7715 18.1766C40.2433 18.1766 41.4236 17.0241 41.4236 15.4134Z" fill="#E2E8F0"/>
</svg>
