<svg width="72" height="27" viewBox="0 0 72 27" fill="none" xmlns="http://www.w3.org/2000/svg">
<path d="M62.7163 15.5039C62.8067 16.8599 63.9217 17.794 65.7749 17.794C67.5076 17.794 68.8033 17.1763 69.3759 16.6038L71.1538 19.4363C70.3853 20.2499 68.8787 21.0937 65.4736 21.0937C61.3603 21.0937 58.4072 18.7282 58.4072 14.404C58.4072 10.803 60.8631 8.00061 65.112 8.00061C69.1499 8.00061 71.7112 10.2305 71.7112 14.5396C71.7112 14.7053 71.6962 15.3683 71.666 15.5039H62.7163ZM67.4021 13.1233C67.3569 12.144 66.694 11.0592 65.1873 11.0592C63.6655 11.0592 62.8821 12.0536 62.8218 13.1233H67.4021Z" fill="#E2E8F0"/>
<path d="M56.4165 20.7319H51.8965V0H56.4165V20.7319Z" fill="#E2E8F0"/>
<path d="M45.2593 8.36208H50.382L44.521 14.2683L50.9696 20.7319H45.7414L40.9351 15.7448V20.7319H36.415V0H40.9351V12.6863L45.2593 8.36208Z" fill="#E2E8F0"/>
<path d="M30.9976 17.553C32.1577 17.553 32.9261 17.0106 33.1822 16.7695L35.2615 19.8431C34.7793 20.2349 33.1973 21.0937 30.9524 21.0937C26.7035 21.0937 23.8408 18.5323 23.8408 14.5396C23.8408 10.5318 26.7035 8.00061 30.9524 8.00061C33.1521 8.00061 34.7793 8.85942 35.2615 9.28129L33.1521 12.3549C32.9412 12.1591 32.2029 11.5413 30.9976 11.5413C29.4909 11.5413 28.1499 12.7919 28.1499 14.5396C28.1499 16.2874 29.4909 17.553 30.9976 17.553Z" fill="#E2E8F0"/>
<path d="M19.223 5.7706C17.8218 5.7706 16.6768 4.61045 16.6768 3.20924C16.6768 1.82309 17.8218 0.632812 19.223 0.632812C20.6243 0.632812 21.8145 1.79296 21.8145 3.20924C21.8145 4.61045 20.6544 5.7706 19.223 5.7706ZM16.9178 20.7319V8.36209H21.4228V20.7319H16.9178Z" fill="#E2E8F0"/>
<path d="M4.45978 26.9999H0V8.36221H4.50498V10.1853C4.91178 9.34156 6.5842 8.00061 8.96476 8.00061C12.5507 8.00061 14.7353 10.9236 14.7353 14.5547C14.7353 18.1858 12.3699 21.0937 8.78395 21.0937C6.16233 21.0937 4.71591 19.361 4.45978 18.7131V26.9999ZM10.3208 14.5547C10.3208 12.822 9.04009 11.5413 7.44301 11.5413C5.77059 11.5413 4.50498 12.8521 4.50498 14.5547C4.50498 16.2723 5.77059 17.553 7.44301 17.553C9.04009 17.553 10.3208 16.3024 10.3208 14.5547Z" fill="#E2E8F0"/>
</svg>
