<svg width="14" height="14" viewBox="0 0 14 14" fill="none" xmlns="http://www.w3.org/2000/svg">
<path d="M5.39568 10.6553H5.80036C6.02698 10.6553 6.18885 10.609 6.28597 10.5162C6.38309 10.4235 6.43165 10.2792 6.43165 10.0835V3.34467H5.16906C4.94245 3.34467 4.78058 3.39104 4.68345 3.48377C4.58633 3.5662 4.53777 3.71046 4.53777 3.91654V4.48841H3V2H12V4.48841H10.4622V3.91654C10.4622 3.71046 10.4137 3.5662 10.3165 3.48377C10.2194 3.39104 10.0576 3.34467 9.83094 3.34467H8.56835V10.0835C8.56835 10.2792 8.61691 10.4235 8.71403 10.5162C8.82194 10.609 8.98921 10.6553 9.21583 10.6553H9.6205V12H5.39568V10.6553Z" fill="#2C7FFF"/>
</svg>
