<svg width="26" height="26" viewBox="0 0 26 26" fill="none" xmlns="http://www.w3.org/2000/svg">
<path d="M20.4873 2C21.1377 2 21.665 2.52732 21.665 3.17773C21.665 3.82812 21.1377 4.35547 20.4873 4.35547H20.1924V4.97461C20.1924 6.03618 20.5854 6.55175 21.2139 7.26855C22.1932 7.89663 22.8428 8.99434 22.8428 10.2441V20.2539C22.8428 21.8799 21.5245 23.1982 19.8984 23.1982H6.94434L6.79297 23.1943C6.74905 23.1921 6.7055 23.1877 6.66211 23.1836C6.65724 23.1831 6.65233 23.1831 6.64746 23.1826C6.58215 23.1761 6.51808 23.1641 6.4541 23.1533C6.42515 23.1485 6.39585 23.1463 6.36719 23.1406C6.3063 23.1285 6.24697 23.1115 6.1875 23.0957C6.15299 23.0865 6.11799 23.0797 6.08398 23.0693C6.03962 23.0558 5.99657 23.039 5.95312 23.0234C5.90692 23.0069 5.86054 22.9914 5.81543 22.9727C5.77025 22.9539 5.72663 22.9321 5.68262 22.9111C5.64269 22.8921 5.60239 22.8742 5.56348 22.8535C5.51971 22.8302 5.47796 22.8037 5.43555 22.7783C5.39803 22.7559 5.35965 22.735 5.32324 22.7109C5.28527 22.6858 5.2496 22.6576 5.21289 22.6309C5.17243 22.6013 5.13163 22.5725 5.09277 22.541C5.05866 22.5134 5.02599 22.4842 4.99316 22.4551C4.95883 22.4246 4.92448 22.3943 4.8916 22.3623C4.85661 22.3282 4.82331 22.2926 4.79004 22.2568C4.75988 22.2244 4.72986 22.192 4.70117 22.1582C4.66877 22.1201 4.63788 22.0808 4.60742 22.041C4.58153 22.0072 4.55569 21.9734 4.53125 21.9385C4.50455 21.9003 4.47999 21.8608 4.45508 21.8213C4.42928 21.7804 4.40369 21.7395 4.37988 21.6973C4.35743 21.6575 4.33606 21.6171 4.31543 21.5762C4.29454 21.5347 4.27482 21.4927 4.25586 21.4502C4.23818 21.4105 4.22103 21.3706 4.20508 21.3301C4.18447 21.2777 4.1651 21.2247 4.14746 21.1709C4.13603 21.136 4.12538 21.1009 4.11523 21.0654C4.10019 21.0129 4.08637 20.9599 4.07422 20.9062C4.06458 20.8636 4.0566 20.8206 4.04883 20.7773C4.03857 20.7202 4.03035 20.6627 4.02344 20.6045C4.00977 20.4894 4 20.3726 4 20.2539V10.2441C4 8.9954 4.64805 7.89787 5.62598 7.26953C6.25534 6.5518 6.64936 6.03708 6.64941 4.97461V4.35547H6.35547C5.70508 4.35547 5.17777 3.82812 5.17773 3.17773C5.17773 2.52732 5.70506 2 6.35547 2H20.4873ZM16.0713 14.8076V17.6045H13.2744V19.3711H17.8379V14.8076H16.0713ZM9.15234 10.6855V15.249H10.9189V12.4521H13.7158V10.6855H9.15234ZM8.71094 4.72363C8.71093 5.70996 8.63708 6.32972 8.40137 6.71094H18.4404C18.2048 6.32971 18.1319 5.70976 18.1318 4.72363V4.35547H8.71094V4.72363Z" fill="#34D399"/>
</svg>
